<svg width="29" height="29" viewBox="0 0 29 29" fill="none" xmlns="http://www.w3.org/2000/svg">
<path d="M21.4999 15.6666H15.6666V21.5C15.6666 22.1416 15.1416 22.6666 14.4999 22.6666C13.8583 22.6666 13.3333 22.1416 13.3333 21.5V15.6666H7.49992C6.85825 15.6666 6.33325 15.1416 6.33325 14.5C6.33325 13.8583 6.85825 13.3333 7.49992 13.3333H13.3333V7.49998C13.3333 6.85831 13.8583 6.33331 14.4999 6.33331C15.1416 6.33331 15.6666 6.85831 15.6666 7.49998V13.3333H21.4999C22.1416 13.3333 22.6666 13.8583 22.6666 14.5C22.6666 15.1416 22.1416 15.6666 21.4999 15.6666Z" fill="#4CD964"/>
</svg>
