<?xml version="1.0" encoding="utf-8"?>
<!-- Generator: Adobe Illustrator 16.0.0, SVG Export Plug-In . SVG Version: 6.00 Build 0)  -->
<!DOCTYPE svg PUBLIC "-//W3C//DTD SVG 1.1//EN" "http://www.w3.org/Graphics/SVG/1.1/DTD/svg11.dtd">
<svg version="1.1" id="Layer_1" xmlns="http://www.w3.org/2000/svg" xmlns:xlink="http://www.w3.org/1999/xlink" x="0px" y="0px"
	 width="128px" height="128px" viewBox="0 0 128 128" enable-background="new 0 0 128 128" xml:space="preserve">
<g>
	<g>
		<g>
			<g>
				<path fill="#282D33" d="M47.667,82.777c-19.083,0-34.607-15.667-34.607-34.925c0-19.258,15.524-34.925,34.607-34.925
					c19.082,0,34.606,15.667,34.606,34.925C82.273,67.11,66.749,82.777,47.667,82.777z M47.667,16.927
					C30.79,16.927,17.06,30.8,17.06,47.852s13.73,30.925,30.607,30.925c16.876,0,30.606-13.873,30.606-30.925
					S64.543,16.927,47.667,16.927z"/>
			</g>
			<g>
				<path fill="#282D33" d="M47.666,82.777c-11.698,0-20.862-15.341-20.862-34.925s9.164-34.925,20.862-34.925
					c11.693,0,20.854,15.341,20.854,34.925S59.359,82.777,47.666,82.777z M47.666,16.927c-9.14,0-16.862,14.162-16.862,30.925
					s7.722,30.925,16.862,30.925c9.136,0,16.854-14.162,16.854-30.925S56.802,16.927,47.666,16.927z"/>
			</g>
			<g>
				<path fill="#282D33" d="M47.666,82.775h-2V12.927h2c19.083,0,34.607,15.667,34.607,34.924S66.749,82.775,47.666,82.775z
					 M49.666,16.992V78.71c15.949-1.044,28.607-14.486,28.607-30.859S65.615,18.036,49.666,16.992z"/>
			</g>
			<g>
				<path fill="#282D33" d="M79.534,61.456H15.792l-0.485-1.301c-1.49-3.998-2.246-8.137-2.246-12.303
					c0-4.167,0.757-8.308,2.249-12.308l0.485-1.301h63.741l0.486,1.299c1.494,3.992,2.252,8.133,2.252,12.31
					c0,4.18-0.758,8.32-2.252,12.306L79.534,61.456z M18.6,57.456h58.131c1.023-3.132,1.542-6.356,1.542-9.604
					c0-3.246-0.519-6.472-1.543-9.609H18.603c-1.024,3.144-1.542,6.37-1.542,9.609C17.06,51.09,17.578,54.315,18.6,57.456z"/>
			</g>
		</g>
	</g>
	<g>
		<g>
			<path fill="none" stroke="#282D33" stroke-width="4" d="M75.617,75.729"/>
		</g>
	</g>
	<g>
		<path fill="#282D33" d="M47.725,95.17C21.748,95.169,0.604,73.826,0.592,47.595C0.589,34.947,5.471,23.022,14.34,14.017
			C23.253,4.978,35.104,0,47.711,0C60.318,0,72.153,4.953,81.07,13.946c8.916,8.986,13.826,20.93,13.826,33.629
			c0,12.652-4.879,24.573-13.739,33.566C72.225,90.188,60.361,95.17,47.75,95.17H47.725z M47.745,4
			C36.183,4,25.343,8.554,17.189,16.824C9.063,25.075,4.589,36.003,4.592,47.593C4.603,71.62,23.952,91.169,47.725,91.17v2l0.024-2
			c11.534,0,22.387-4.559,30.561-12.837c8.116-8.238,12.587-19.163,12.587-30.758c0-11.637-4.498-22.58-12.666-30.813
			C70.07,8.532,59.243,4,47.745,4z"/>
	</g>
	<g>
		<path fill="#282D33" d="M107.326,125.96L76.683,95.02l18.04-18.215l30.643,30.94L107.326,125.96z M82.312,95.02l25.015,25.257
			l12.41-12.531L94.723,82.488L82.312,95.02z"/>
	</g>
	<g>
		
			<rect x="94.78" y="87.675" transform="matrix(0.7105 0.7037 -0.7037 0.7105 93.7932 -41.0428)" fill="#282D33" width="4" height="11.601"/>
	</g>
	<g>
		<path fill="#282D33" d="M109.389,128l-4.23-4.272l2.846-2.811l3.028,3.058c6.633-0.409,11.958-5.798,12.353-12.503
			c-1.014-1.025-2.027-2.048-3.04-3.065l2.834-2.822c1.093,1.097,2.186,2.201,3.279,3.307l0.95,0.96v0.822
			c0,9.552-7.709,17.325-17.186,17.327H109.389z"/>
	</g>
	<g>
		<g>
			
				<rect x="78.417" y="81.418" transform="matrix(0.7038 0.7104 -0.7104 0.7038 83.835 -34.2148)" fill="#282D33" width="9.054" height="4"/>
		</g>
	</g>
</g>
</svg>
